<svg width="79" height="100" viewBox="0 0 79 92" fill="none"
     xmlns="http://www.w3.org/2000/svg">
    <path d="M43.4432 30C49.7499 30.9922 55.4654 34.3658 59.5057 39.4261C63.4474 44.4864 65.4183 50.8366 64.9256 57.286C64.4329 63.7354 61.5751 69.6887 56.845 74.1537C52.115 78.5195 46.0053 81 39.6 81C33.1947 81 26.9865 78.6187 22.2564 74.2529C17.5263 69.8872 14.6686 63.9339 14.0773 57.4844C13.5846 51.035 15.4569 44.6848 19.3987 39.6245C23.3404 34.5642 29.0559 31.1907 35.3626 30.0992L35.8554 33.2743C30.3369 34.1673 25.3112 37.144 21.8622 41.6089C18.4132 46.0739 16.738 51.6303 17.1322 57.286C17.6249 62.9416 20.0885 68.2004 24.2273 71.9708C28.3661 75.8405 33.786 77.9241 39.4029 77.9241C45.0199 77.9241 50.4397 75.7412 54.5786 71.9708C58.7174 68.2004 61.1809 62.8424 61.6737 57.1868C62.0678 51.5311 60.3926 45.9747 56.9436 41.5097C53.4946 37.0447 48.4689 34.1673 42.8519 33.2743L43.4432 30Z"
          fill="#171A1C"/>
    <path d="M45.7294 26.202C52.8269 27.7174 59.1247 31.8593 63.4232 37.8197C67.7217 43.78 69.621 51.1547 68.8213 58.4284C68.0216 65.803 64.6228 72.5716 59.2246 77.4207C53.8265 82.2698 46.729 85.0984 39.4316 84.9974C32.1341 84.9974 25.1366 82.2698 19.7384 77.3196C14.3403 72.3695 10.9415 65.601 10.1418 58.2263C9.44203 50.8516 11.3414 43.578 15.6399 37.6176C19.9384 31.6573 26.2362 27.5153 33.4337 26L34.1334 29.4348C27.8356 30.7481 22.2376 34.3849 18.4389 39.6381C14.6402 44.8913 12.9408 51.3567 13.5406 57.8222C14.2404 64.2877 17.2393 70.3491 21.9377 74.693C26.736 79.037 32.9338 81.4616 39.3316 81.4616C45.7294 81.4616 52.0272 79.037 56.8255 74.693C61.6238 70.3491 64.6228 64.3887 65.3225 57.9232C66.0223 51.4578 64.3229 44.9923 60.5242 39.6381C56.8255 34.5869 51.3274 30.9501 45.0296 29.5358L45.7294 26.202Z"
          fill="#707779"/>
    <path d="M43.7021 58.6998C44.3021 58.0998 45.0021 57.7998 45.7021 57.7998C46.4021 57.7998 47.1021 57.9998 47.7021 58.5998L66.6021 76.4998C71.5021 70.3998 74.2021 62.6998 74.1021 54.7998C74.0021 46.1998 70.6021 37.8998 64.7021 31.5998L68.2021 28.2998C75.0021 35.3998 78.8021 44.8998 78.9021 54.6998C79.0021 64.4998 75.4021 73.9998 68.9021 81.2998C68.7021 81.5998 68.5021 81.7998 68.2021 82.0998C67.6021 82.6998 67.0021 82.9998 66.2021 82.9998C65.5021 82.9998 64.8021 82.7998 64.2021 82.1998L43.8021 62.6998C42.7021 61.6998 42.6021 59.8998 43.7021 58.6998Z"
          fill="#780035"/>
    <path d="M35.102 51.0998C34.502 51.6998 33.802 51.9998 33.102 51.9998C32.402 51.9998 31.702 51.7998 31.102 51.1998L12.302 33.2998C7.40203 39.3998 4.70203 47.0998 4.80203 54.9998C4.90203 63.5998 8.30203 71.8998 14.202 78.1998L10.702 81.4998C4.00203 74.3998 0.102029 64.8998 0.00202901 55.0998C-0.097971 45.2998 3.50203 35.7998 10.002 28.4998C10.202 28.1998 10.402 27.9998 10.702 27.6998C11.302 27.0998 11.902 26.7998 12.602 26.7998C13.302 26.7998 14.002 26.9998 14.602 27.5998L35.002 47.0998C36.202 48.1998 36.202 49.9998 35.102 51.0998Z"
          fill="#006785"/>
    <path d="M54.702 24.3C50.802 22.3 46.602 21 42.302 20.6V46.3C42.302 47.9 41.002 49.1 39.502 49.1C37.902 49.1 36.702 47.8 36.702 46.3V20.5C32.102 20.8 27.702 22 23.502 24.1L21.302 19.8C26.102 17.4 31.302 16 36.602 15.7V2.8C36.602 1.2 37.902 0 39.402 0C40.202 0 40.902 0.3 41.402 0.8C41.902 1.3 42.202 2 42.202 2.8V15.7C47.302 16.1 52.302 17.6 56.902 20L54.702 24.3Z"
          fill="#171C17"/>
    <path d="M42.302 88.7996C42.302 90.3996 41.002 91.6996 39.502 91.6996C37.902 91.6996 36.702 90.3996 36.702 88.7996V63.4996C36.702 61.8996 38.002 60.5996 39.502 60.5996C40.302 60.5996 41.002 60.8996 41.502 61.4996C42.002 61.9996 42.302 62.7996 42.302 63.5996V88.7996Z"
          fill="#171C17"/>
    <path d="M39.502 59.2998C41.9873 59.2998 44.002 57.2851 44.002 54.7998C44.002 52.3145 41.9873 50.2998 39.502 50.2998C37.0167 50.2998 35.002 52.3145 35.002 54.7998C35.002 57.2851 37.0167 59.2998 39.502 59.2998Z"
          fill="#171C17"/>
</svg>