
<svg version="1.1" xmlns="http://www.w3.org/2000/svg" viewBox="0 0 79 94" style="enable-background:new 0 0 79 94;">
<style type="text/css">
	.st0{fill:#FFFFFF;filter:url(#Adobe_OpacityMaskFilter);}
	.st1{mask:url(#path-1-inside-1_1_);stroke:#171A1C;stroke-width:9;}
	.st2{fill:#FFFFFF;filter:url(#Adobe_OpacityMaskFilter_1_);}
	.st3{mask:url(#path-2-inside-2_1_);stroke:#DFEEF2;stroke-width:7;stroke-opacity:0.5;}
	.st4{fill:#780035;}
	.st5{fill:#006785;}
	.st6{fill:#DFEEF2;}
</style>
<g id="bg_note">
	<g>
		<defs>
			<filter id="Adobe_OpacityMaskFilter" filterUnits="userSpaceOnUse" x="9.2" y="24.5" width="60.7" height="61">
				<feColorMatrix  type="matrix" values="1 0 0 0 0  0 1 0 0 0  0 0 1 0 0  0 0 0 1 0"/>
			</filter>
		</defs>
		<mask maskUnits="userSpaceOnUse" x="9.2" y="24.5" width="60.7" height="61" id="path-1-inside-1_1_">
			<path class="st0" d="M43.5,29.6c6.4,1,12.2,4.4,16.3,9.5c4,5.1,6,11.5,5.5,18c-0.5,6.5-3.4,12.5-8.2,17c-4.8,4.4-11,6.9-17.5,6.9
				c-6.5,0-12.8-2.4-17.6-6.8c-4.8-4.4-7.7-10.4-8.3-16.9c-0.5-6.5,1.4-12.9,5.4-18c4-5.1,9.8-8.5,16.2-9.6l0.5,3.2
				c-5.6,0.9-10.7,3.9-14.2,8.4c-3.5,4.5-5.2,10.1-4.8,15.8c0.5,5.7,3,11,7.2,14.8c4.2,3.9,9.7,6,15.4,6c5.7,0,11.2-2.2,15.4-6
				s6.7-9.2,7.2-14.9c0.4-5.7-1.3-11.3-4.8-15.8c-3.5-4.5-8.6-7.4-14.3-8.3L43.5,29.6z"/>
		</mask>
		<path class="st1" d="M43.5,29.6c6.4,1,12.2,4.4,16.3,9.5c4,5.1,6,11.5,5.5,18c-0.5,6.5-3.4,12.5-8.2,17c-4.8,4.4-11,6.9-17.5,6.9
			c-6.5,0-12.8-2.4-17.6-6.8c-4.8-4.4-7.7-10.4-8.3-16.9c-0.5-6.5,1.4-12.9,5.4-18c4-5.1,9.8-8.5,16.2-9.6l0.5,3.2
			c-5.6,0.9-10.7,3.9-14.2,8.4c-3.5,4.5-5.2,10.1-4.8,15.8c0.5,5.7,3,11,7.2,14.8c4.2,3.9,9.7,6,15.4,6c5.7,0,11.2-2.2,15.4-6
			s6.7-9.2,7.2-14.9c0.4-5.7-1.3-11.3-4.8-15.8c-3.5-4.5-8.6-7.4-14.3-8.3L43.5,29.6z"/>
	</g>
	<defs>
		<filter id="Adobe_OpacityMaskFilter_1_" filterUnits="userSpaceOnUse" x="6.5" y="22.1" width="66" height="66">
			<feColorMatrix  type="matrix" values="1 0 0 0 0  0 1 0 0 0  0 0 1 0 0  0 0 0 1 0"/>
		</filter>
	</defs>
	<mask maskUnits="userSpaceOnUse" x="6.5" y="22.1" width="66" height="66" id="path-2-inside-2_1_">
		<path class="st2" d="M45.7,26.3c7.1,1.5,13.4,5.6,17.7,11.5c4.3,5.9,6.2,13.2,5.4,20.4c-0.8,7.3-4.2,14-9.6,18.8
			s-12.5,7.6-19.8,7.5c-7.3,0-14.3-2.7-19.7-7.6c-5.4-4.9-8.8-11.6-9.6-18.9c-0.7-7.3,1.2-14.5,5.5-20.4c4.3-5.9,10.6-10,17.8-11.5
			l0.7,3.4c-6.3,1.3-11.9,4.9-15.7,10.1c-3.8,5.2-5.5,11.6-4.9,18c0.7,6.4,3.7,12.4,8.4,16.7c4.8,4.3,11,6.7,17.4,6.7
			c6.4,0,12.7-2.4,17.5-6.7c4.8-4.3,7.8-10.2,8.5-16.6c0.7-6.4-1-12.8-4.8-18.1C56.8,34.6,51.3,31,45,29.6L45.7,26.3z"/>
	</mask>
	<path class="st3" d="M45.7,26.3c7.1,1.5,13.4,5.6,17.7,11.5c4.3,5.9,6.2,13.2,5.4,20.4c-0.8,7.3-4.2,14-9.6,18.8
		s-12.5,7.6-19.8,7.5c-7.3,0-14.3-2.7-19.7-7.6c-5.4-4.9-8.8-11.6-9.6-18.9c-0.7-7.3,1.2-14.5,5.5-20.4c4.3-5.9,10.6-10,17.8-11.5
		l0.7,3.4c-6.3,1.3-11.9,4.9-15.7,10.1c-3.8,5.2-5.5,11.6-4.9,18c0.7,6.4,3.7,12.4,8.4,16.7c4.8,4.3,11,6.7,17.4,6.7
		c6.4,0,12.7-2.4,17.5-6.7c4.8-4.3,7.8-10.2,8.5-16.6c0.7-6.4-1-12.8-4.8-18.1C56.8,34.6,51.3,31,45,29.6L45.7,26.3z"/>
</g>
<g id="main_logo">
	<path class="st4" d="M43.7,58.7c0.6-0.6,1.3-0.9,2-0.9c0.7,0,1.4,0.2,2,0.8l18.9,17.9c4.9-6.1,7.6-13.8,7.5-21.7
		c-0.1-8.6-3.5-16.9-9.4-23.2l3.5-3.3c6.8,7.1,10.6,16.6,10.7,26.4c0.1,9.8-3.5,19.3-10,26.6c-0.2,0.3-0.4,0.5-0.7,0.8
		C67.6,82.7,67,83,66.2,83c-0.7,0-1.4-0.2-2-0.8L43.8,62.7C42.7,61.7,42.6,59.9,43.7,58.7z"/>
	<path class="st5" d="M35.1,51.1c-0.6,0.6-1.3,0.9-2,0.9c-0.7,0-1.4-0.2-2-0.8L12.3,33.3C7.4,39.4,4.7,47.1,4.8,55
		c0.1,8.6,3.5,16.9,9.4,23.2l-3.5,3.3C4,74.4,0.1,64.9,0,55.1c-0.1-9.8,3.5-19.3,10-26.6c0.2-0.3,0.4-0.5,0.7-0.8
		c0.6-0.6,1.2-0.9,1.9-0.9c0.7,0,1.4,0.2,2,0.8L35,47.1C36.2,48.2,36.2,50,35.1,51.1z"/>
</g>
<g id="sword">
	<path class="st6" d="M54.7,24.3c-3.9-2-8.1-3.3-12.4-3.7l0,25.7c0,1.6-1.3,2.8-2.8,2.8c0,0,0,0,0,0c-1.6,0-2.8-1.3-2.8-2.8l0-25.8
		c-4.6,0.3-9,1.5-13.2,3.6l-2.2-4.3c4.8-2.4,10-3.8,15.3-4.1l0-12.9c0-1.6,1.3-2.8,2.8-2.8c0.8,0,1.5,0.3,2,0.8s0.8,1.2,0.8,2
		l0,12.9c5.1,0.4,10.1,1.9,14.7,4.3L54.7,24.3z"/>
	<path class="st6" d="M42.3,88.8c0,1.6-1.3,2.9-2.8,2.9c0,0,0,0,0,0c-1.6,0-2.8-1.3-2.8-2.9l0-25.3c0-1.6,1.3-2.9,2.8-2.9
		c0.8,0,1.5,0.3,2,0.9c0.5,0.5,0.8,1.3,0.8,2.1L42.3,88.8z"/>
	<g>
		<circle class="st6" cx="39.5" cy="54.8" r="4.5"/>
	</g>
</g>
</svg>
